<svg xmlns="http://www.w3.org/2000/svg" viewBox="0 0 32 32">
  <style>
    path { fill: #0D0D0D; }
    @media (prefers-color-scheme: dark) {
      path { fill: #FAFAFA; }
    }
  </style>
  <path d="M26 4C20 2 14 6 12 10c-1 2-1.5 4.5-1 7 .3 1.5.8 3 1.5 4.2C10 19.5 8 17 7 14c-1.5-4.5 0-9 4-12C7 3 3.5 6 2 10c-2 5 0 10.5 4 14 2 1.8 4.5 3 7.2 3.5 1.5.3 3 .4 4.5.2C21 27 24 25 26 22c2.5-3.5 3-8 2-12-.5-2-1-3.5-2-5zm-4 15c-1.5 2-3.5 3-6 3-1 0-2-.2-3-.7 1.5.2 3-.2 4.2-1 1.5-1 2.5-2.5 3-4.3.5-2 .3-4-.5-5.8 1.5 2 2.2 4.2 2.3 6.5 0 .8-.2 1.6-.5 2.3z"/>
</svg>
